<svg id="Layer_1" data-name="Layer 1" xmlns="http://www.w3.org/2000/svg" viewBox="0 0 30 30"><defs><style>.cls-1{fill:none;stroke:#ffffff;stroke-linejoin:round;}.cls-2{fill:#ffffff;}</style></defs><title>ai</title><path class="cls-1" d="M20.38,21.18,16.81,15a.64.64,0,0,1-.07-.28V9.8a1,1,0,0,1,.85-1V8H12.36v.77a1,1,0,0,1,.86,1v4.93a.65.65,0,0,1-.08.28L9.58,21.18a.54.54,0,0,0,.47.81H19.9A.54.54,0,0,0,20.38,21.18Z"/><path class="cls-2" d="M18.77,20.84H11.2l1.36-2.36a2.11,2.11,0,0,0,1.71.43c1-.27,1.65-1.09,2.57-1.42Z"/></svg>