<?xml version="1.0" encoding="utf-8"?>
<!-- Generator: Adobe Illustrator 22.0.1, SVG Export Plug-In . SVG Version: 6.00 Build 0)  -->
<svg version="1.1" xmlns="http://www.w3.org/2000/svg" xmlns:xlink="http://www.w3.org/1999/xlink" x="0px" y="0px"
	 viewBox="0 0 30 30" style="enable-background:new 0 0 30 30;" xml:space="preserve">
<style type="text/css">
	.st0{display:none;}
	.st1{display:inline;opacity:0.71;fill:#231F20;}
	.st2{fill:none;stroke:#FFFFFF;stroke-miterlimit:10;}
	.st3{fill:#FFFFFF;}
	.st4{fill:none;stroke:#FFFFFF;stroke-linecap:round;stroke-linejoin:round;stroke-miterlimit:10;}
	.st5{display:inline;opacity:0.45;}
</style>
<g id="Layer_2" class="st0">
	<rect x="-80" y="-195.4" class="st1" width="359.9" height="311.9"/>
</g>
<g id="Layer_1">
	<g>
		<path class="st2" d="M7.3,23.2c0,0-0.5-2.6,2.4-3.2c2.9-0.7,3-1.5,3-1.8"/>
		<path class="st2" d="M18.8,13.5c-0.1,0.2-0.2,0.4-0.4,0.6c-0.1,0-0.1,0.1-0.2,0.1c-0.7,1.8-1.8,3.3-3.2,3.3s-2.5-1.5-3.2-3.3
			c-0.1,0-0.1-0.1-0.2-0.1c-0.2-0.1-0.3-0.3-0.4-0.6c-0.1-0.4-0.4-1.2-0.3-1.6c0.1-0.3,0.2-0.3,0.4-0.3c0-0.2,0-0.4,0-0.6
			c0-0.1,0-0.3,0-0.4l0,0c-0.5-1.2,0.1-2.2,0.1-2.2c1.3-2.5,3.2-2.6,4.5-2.4c1.3,0.2,2,1.4,2,1.4c0.5,0,0.8,0.7,1.1,1.6
			c0.1,0.6,0,1.2-0.2,1.6c0,0.1,0,0.2,0,0.4c0,0.2,0,0.4,0,0.6c0.2,0,0.3,0,0.4,0.3C19.2,12.3,18.9,13.1,18.8,13.5z"/>
		<path class="st2" d="M22.7,23.2c0,0,0.5-2.6-2.4-3.2c-2.9-0.7-3-1.5-3-1.8"/>
	</g>
</g>
<g id="Layer_3" class="st0">
</g>
<g id="Layer_4">
</g>
</svg>
