<?xml version="1.0" encoding="utf-8"?>
<!-- Generator: Adobe Illustrator 22.0.1, SVG Export Plug-In . SVG Version: 6.00 Build 0)  -->
<svg version="1.1" id="Layer_1" xmlns="http://www.w3.org/2000/svg" xmlns:xlink="http://www.w3.org/1999/xlink" x="0px" y="0px"
	 viewBox="0 0 256.1 50" style="enable-background:new 0 0 256.1 50;" xml:space="preserve">
<g>
	<path d="M8.4,42.8l-1.2-0.4L21.1,9l1.2,0.5L8.4,42.8z"/>
	<path d="M33.9,34.5c-0.4,0.7-0.9,1.3-1.6,1.7c-0.6,0.4-1.4,0.8-2.2,1c-0.8,0.2-1.7,0.3-2.6,0.3c-1.1,0-2.1-0.1-3.1-0.3
		c-1-0.2-1.9-0.5-2.7-0.9v-4.9H22c0.2,0.6,0.4,1.2,0.7,1.9c0.3,0.7,0.7,1.3,1.1,1.8c0.4,0.6,0.9,1,1.5,1.4c0.6,0.4,1.3,0.5,2.1,0.5
		c1.2,0,2.1-0.3,2.9-1c0.7-0.7,1.1-1.7,1.1-3.2c0-0.8-0.2-1.4-0.7-1.9c-0.5-0.5-1.1-0.9-2-1c-0.7-0.1-1.3-0.3-1.9-0.4
		c-0.6-0.1-1.2-0.3-1.7-0.5c-0.9-0.3-1.7-0.9-2.3-1.7c-0.6-0.8-0.9-1.8-0.9-2.9c0-0.8,0.2-1.5,0.5-2.1c0.3-0.6,0.8-1.2,1.3-1.6
		c0.5-0.4,1.2-0.8,1.9-1c0.7-0.2,1.5-0.4,2.3-0.4c1,0,2,0.1,2.8,0.3c0.8,0.2,1.6,0.4,2.3,0.7l0.4,4.6L33.1,25
		c-0.3-0.7-0.7-1.4-1-2.1c-0.3-0.6-0.7-1.2-1.2-1.6c-0.4-0.5-0.9-0.8-1.4-1.1c-0.5-0.2-1.2-0.4-1.9-0.4c-0.4,0-0.8,0.1-1.3,0.2
		c-0.4,0.1-0.8,0.4-1.1,0.7c-0.3,0.3-0.6,0.6-0.8,1.1s-0.3,0.9-0.3,1.5c0,0.9,0.3,1.6,0.8,2c0.5,0.4,1.2,0.7,2,0.9
		c0.5,0.1,1.1,0.3,1.8,0.4c0.6,0.1,1.2,0.3,1.7,0.4c1.1,0.3,2.1,0.8,2.9,1.7c0.8,0.9,1.2,1.9,1.2,3.2C34.5,32.9,34.3,33.8,33.9,34.5
		z"/>
	<path d="M56.9,37.4V37c0.7,0,1.2-0.1,1.5-0.2c0.3-0.1,0.5-0.4,0.5-0.8v-9.5c0-1.4-0.3-2.6-0.8-3.5c-0.5-0.9-1.4-1.3-2.7-1.3
		c-0.8,0-1.5,0.2-2.1,0.7c-0.6,0.4-1.1,1-1.7,1.7v12.1c0,0.2,0.1,0.3,0.2,0.4c0.1,0.1,0.3,0.2,0.5,0.3c0.2,0.1,0.4,0.1,0.7,0.1
		c0.2,0,0.5,0.1,0.7,0.1v0.3h-7.3V37c0.7,0,1.2-0.1,1.6-0.2c0.4-0.1,0.6-0.4,0.6-0.8v-9.6c0-1.5-0.3-2.6-0.8-3.5
		c-0.5-0.8-1.4-1.3-2.7-1.3c-0.8,0-1.5,0.2-2,0.5c-0.5,0.3-1.1,0.9-1.8,1.6v12.3c0,0.2,0.1,0.4,0.3,0.5c0.1,0.1,0.3,0.2,0.5,0.2
		c0.2,0.1,0.4,0.1,0.6,0.1c0.2,0,0.5,0,0.7,0.1v0.4h-7.3v-0.4c0.6,0,1.1-0.2,1.5-0.3c0.4-0.2,0.6-0.5,0.6-0.9V23.1
		c0-0.2,0-0.3-0.1-0.4c0-0.1-0.1-0.2-0.3-0.3c-0.2-0.1-0.5-0.3-0.8-0.4c-0.3-0.2-0.6-0.3-0.9-0.4v-0.3l4.9-1.8h0.2v4l0.1,0
		c0.2-0.4,0.6-0.9,1-1.4s0.9-0.9,1.4-1.3c0.5-0.4,1.1-0.7,1.7-1c0.6-0.3,1.2-0.4,1.9-0.4c1.2,0,2.2,0.4,2.9,1.2s1.2,1.8,1.4,3.2h0.1
		c0.2-0.4,0.5-0.9,0.9-1.4c0.4-0.5,0.9-1,1.4-1.4c0.5-0.4,1.1-0.8,1.7-1.1c0.6-0.3,1.3-0.4,2-0.4c1.4,0,2.5,0.5,3.3,1.6
		c0.7,1,1.1,2.4,1.1,4v11.1c0,0.2,0.1,0.3,0.2,0.4c0.1,0.1,0.3,0.2,0.5,0.3c0.2,0.1,0.4,0.1,0.7,0.1c0.2,0,0.5,0.1,0.7,0.1v0.3H56.9
		z"/>
	<path d="M78.3,37.5h-0.3v-3.8l0,0c-0.3,0.4-0.6,0.9-1,1.3c-0.4,0.5-0.8,0.9-1.3,1.3c-0.5,0.4-1.1,0.7-1.7,0.9
		c-0.6,0.2-1.3,0.3-2,0.3c-1.6,0-2.8-0.5-3.5-1.4c-0.8-0.9-1.1-2.3-1.1-4.2v-9.1c0-0.1,0-0.2,0-0.4c0-0.2,0-0.4,0-0.5s0-0.4-0.1-0.5
		c0-0.2,0-0.3-0.1-0.4c-0.1-0.2-0.2-0.4-0.4-0.5s-0.4-0.2-0.6-0.2c-0.2,0-0.5-0.1-0.7-0.1c-0.2,0-0.5,0-0.7-0.1v-0.4h5.8v10.9
		c0,1.6,0.2,2.9,0.8,3.6s1.4,1.2,2.8,1.2c0.5,0,1-0.1,1.4-0.2c0.4-0.1,0.7-0.3,1.1-0.5c0.3-0.2,0.6-0.5,0.9-0.7
		c0.3-0.3,0.5-0.6,0.7-0.9V22.5c0-0.2,0-0.6-0.1-1c-0.1-0.4-0.1-0.7-0.3-0.9c-0.3-0.1-0.7-0.2-1.2-0.3c-0.5-0.1-1-0.1-1.6-0.2v-0.4
		h6.3v14.8c0,0.2,0,0.3,0.1,0.4c0,0.1,0.1,0.2,0.3,0.3c0.2,0.1,0.6,0.3,1,0.5c0.4,0.2,0.8,0.4,1.1,0.5v0.2L78.3,37.5z"/>
	<path d="M84.5,37.4V37c1.1-0.1,1.9-0.2,2.3-0.4c0.4-0.2,0.6-0.4,0.6-0.8V14.3c0-0.2,0-0.3-0.1-0.4c0-0.1-0.1-0.2-0.3-0.3
		c-0.2-0.1-0.6-0.3-1-0.6c-0.4-0.3-0.8-0.5-1.1-0.6v-0.2l5.4-1.8h0.3V36c0,0.2,0.1,0.4,0.2,0.6c0.1,0.1,0.3,0.2,0.5,0.3
		c0.2,0.1,0.5,0.1,0.9,0.1s0.8,0,1.2,0.1v0.4H84.5z"/>
	<path d="M105.4,22h-5.7v9.8c0,1.3,0.3,2.2,0.8,2.8c0.5,0.6,1.3,0.9,2.1,0.9c0.7,0,1.3-0.1,1.8-0.4c0.5-0.2,0.9-0.6,1.2-1.1l0.2,0.1
		c-0.1,0.4-0.4,0.8-0.6,1.2c-0.3,0.4-0.6,0.8-1,1.1c-0.4,0.3-0.9,0.6-1.5,0.8c-0.6,0.2-1.3,0.3-2.1,0.3c-0.5,0-1-0.1-1.5-0.2
		c-0.5-0.2-0.9-0.4-1.3-0.7c-0.4-0.3-0.7-0.7-0.9-1c-0.2-0.4-0.4-0.8-0.4-1.2c0-2.3,0-4.6,0-6.7c0-2.1,0-4,0-5.6H94v-0.4l5.4-5.1
		h0.3v3.3h6.9L105.4,22z"/>
	<path d="M118.8,22.7c-0.3,0.4-0.7,0.5-1.1,0.5c-0.4,0-0.7-0.1-1-0.2c-0.2-0.1-0.4-0.3-0.6-0.5c-0.2-0.2-0.4-0.3-0.6-0.5
		c-0.2-0.1-0.5-0.2-0.8-0.2c-0.3,0-0.6,0.1-0.9,0.3s-0.6,0.5-0.8,0.8c-0.2,0.3-0.5,0.7-0.7,1.1c-0.2,0.4-0.4,0.8-0.5,1.2v10.8
		c0.1,0.2,0.2,0.4,0.5,0.5c0.2,0.1,0.5,0.2,0.8,0.3c0.3,0.1,0.6,0.1,1,0.1c0.3,0,0.6,0,0.9,0.1v0.4h-8.4v-0.4c0.6,0,1.1-0.2,1.5-0.3
		c0.4-0.2,0.6-0.5,0.6-0.9V23.2c0-0.2,0-0.3-0.1-0.4c0-0.1-0.1-0.2-0.3-0.3c-0.2-0.1-0.5-0.3-0.8-0.5c-0.3-0.2-0.6-0.3-0.9-0.5v-0.2
		l4.9-1.9h0.2l-0.1,5.2h0.1c0.1-0.3,0.3-0.7,0.6-1.3c0.3-0.6,0.6-1.2,1-1.7c0.4-0.6,0.9-1.1,1.5-1.5c0.6-0.4,1.3-0.6,2.1-0.6
		c0.6,0,1.2,0.2,1.6,0.6c0.4,0.4,0.7,0.8,0.7,1.4C119.3,21.9,119.2,22.4,118.8,22.7z"/>
	<path d="M136.7,31.9c-0.5,1.1-1.1,2.1-1.9,3c-0.8,0.8-1.7,1.5-2.8,2c-1.1,0.5-2.2,0.7-3.3,0.7c-1,0-2-0.2-3-0.5
		c-1-0.3-2-0.9-2.9-1.7c-0.9-0.8-1.6-1.7-2.2-2.9c-0.6-1.2-0.8-2.6-0.8-4.2c0-1.1,0.2-2.3,0.7-3.3c0.4-1.1,1-2,1.8-2.8
		c0.8-0.8,1.7-1.5,2.8-2c1.1-0.5,2.3-0.7,3.7-0.7c1,0,2,0.2,3,0.6c1,0.4,2,0.9,2.8,1.7c0.8,0.7,1.5,1.7,2.1,2.8
		c0.5,1.1,0.8,2.4,0.8,3.9C137.4,29.5,137.1,30.7,136.7,31.9z M133.6,25.5c-0.2-1-0.5-1.9-0.9-2.7c-0.4-0.8-1-1.5-1.7-2
		c-0.7-0.5-1.6-0.8-2.6-0.8c-0.8,0-1.6,0.2-2.2,0.7c-0.6,0.5-1.2,1.2-1.7,2c-0.5,0.8-0.8,1.7-1,2.7c-0.2,1-0.4,2-0.4,3.1
		c0,1.1,0.1,2.2,0.3,3.3c0.2,1,0.5,1.9,1,2.7c0.4,0.8,1,1.4,1.7,1.9c0.7,0.5,1.5,0.7,2.5,0.7s1.8-0.3,2.5-0.9
		c0.7-0.6,1.2-1.3,1.6-2.2c0.4-0.9,0.7-1.8,0.9-2.9c0.2-1,0.3-2,0.3-2.8C133.9,27.4,133.8,26.5,133.6,25.5z"/>
	<path d="M149.6,37.4V37c0.7,0,1.2-0.1,1.6-0.2c0.4-0.1,0.6-0.4,0.6-0.8v-9.4c0-1.4-0.3-2.6-0.8-3.5c-0.5-0.9-1.5-1.3-2.8-1.3
		c-0.8,0-1.5,0.2-2.1,0.5c-0.5,0.3-1.2,0.9-1.8,1.5v12.3c0,0.2,0.1,0.4,0.3,0.5c0.1,0.1,0.3,0.2,0.4,0.2c0.2,0.1,0.4,0.1,0.6,0.1
		c0.2,0,0.5,0,0.7,0.1v0.4h-7.2v-0.4c0.6,0,1.1-0.2,1.5-0.3c0.4-0.2,0.6-0.5,0.6-0.9V23c0-0.2,0-0.3-0.1-0.4c0-0.1-0.1-0.2-0.3-0.3
		c-0.2-0.1-0.5-0.3-0.8-0.4c-0.3-0.2-0.6-0.3-0.9-0.4v-0.2l4.9-1.8h0.2v4l0.1,0c0.3-0.4,0.6-0.9,1-1.4c0.4-0.5,0.9-0.9,1.4-1.3
		c0.5-0.4,1.1-0.7,1.7-1c0.6-0.3,1.3-0.4,1.9-0.4c1.4,0,2.5,0.5,3.3,1.6c0.8,1.1,1.2,2.5,1.2,4.2v11c0,0.2,0.1,0.3,0.2,0.4
		c0.2,0.1,0.4,0.2,0.6,0.3c0.2,0.1,0.5,0.1,0.7,0.1c0.3,0,0.5,0.1,0.7,0.1v0.3H149.6z"/>
	<path d="M170.8,34.5c-0.4,0.7-0.9,1.3-1.6,1.7c-0.6,0.4-1.4,0.8-2.2,1c-0.8,0.2-1.7,0.3-2.6,0.3c-1.1,0-2.1-0.1-3.1-0.3
		c-1-0.2-1.9-0.5-2.7-0.9v-4.9h0.3c0.2,0.6,0.4,1.2,0.7,1.9c0.3,0.7,0.7,1.3,1.1,1.8c0.4,0.6,0.9,1,1.5,1.4c0.6,0.4,1.3,0.5,2.1,0.5
		c1.2,0,2.1-0.3,2.9-1c0.7-0.7,1.1-1.7,1.1-3.2c0-0.8-0.2-1.4-0.7-1.9c-0.5-0.5-1.1-0.9-2-1c-0.7-0.1-1.3-0.3-1.9-0.4
		c-0.6-0.1-1.2-0.3-1.7-0.5c-0.9-0.3-1.7-0.9-2.3-1.7c-0.6-0.8-0.9-1.8-0.9-2.9c0-0.8,0.2-1.5,0.5-2.1c0.3-0.6,0.8-1.2,1.3-1.6
		c0.5-0.4,1.2-0.8,1.9-1c0.7-0.2,1.5-0.4,2.3-0.4c1,0,2,0.1,2.8,0.3c0.8,0.2,1.6,0.4,2.3,0.7l0.4,4.6L170,25c-0.3-0.7-0.7-1.4-1-2.1
		c-0.3-0.6-0.7-1.2-1.2-1.6c-0.4-0.5-0.9-0.8-1.4-1.1c-0.5-0.2-1.2-0.4-1.9-0.4c-0.4,0-0.8,0.1-1.3,0.2c-0.4,0.1-0.8,0.4-1.1,0.7
		c-0.3,0.3-0.6,0.6-0.8,1.1s-0.3,0.9-0.3,1.5c0,0.9,0.3,1.6,0.8,2c0.5,0.4,1.2,0.7,2,0.9c0.5,0.1,1.1,0.3,1.8,0.4
		c0.6,0.1,1.2,0.3,1.7,0.4c1.1,0.3,2.1,0.8,2.9,1.7c0.8,0.9,1.2,1.9,1.2,3.2C171.4,32.9,171.2,33.8,170.8,34.5z"/>
	<path d="M183.8,22h-5.7v9.8c0,1.3,0.3,2.2,0.8,2.8c0.5,0.6,1.3,0.9,2.1,0.9c0.7,0,1.3-0.1,1.8-0.4c0.5-0.2,0.9-0.6,1.2-1.1l0.2,0.1
		c-0.1,0.4-0.4,0.8-0.6,1.2c-0.3,0.4-0.6,0.8-1,1.1c-0.4,0.3-0.9,0.6-1.5,0.8c-0.6,0.2-1.3,0.3-2.1,0.3c-0.5,0-1-0.1-1.5-0.2
		c-0.5-0.2-0.9-0.4-1.3-0.7c-0.4-0.3-0.7-0.7-0.9-1c-0.2-0.4-0.4-0.8-0.4-1.2c0-2.3,0-4.6,0-6.7c0-2.1,0-4,0-5.6h-2.7v-0.4l5.4-5.1
		h0.3v3.3h6.9L183.8,22z"/>
	<path d="M201.1,35.2c-0.2,0.5-0.4,0.9-0.8,1.2c-0.3,0.3-0.7,0.6-1.2,0.8c-0.4,0.2-0.9,0.3-1.5,0.3c-0.8,0-1.6-0.2-2.3-0.7
		c-0.7-0.5-1-1.4-1-2.6l-0.1,0c-0.2,0.3-0.5,0.7-0.8,1.1c-0.3,0.4-0.7,0.8-1.2,1.1c-0.5,0.3-1,0.6-1.5,0.8c-0.6,0.2-1.2,0.3-1.9,0.3
		c-0.4,0-0.8-0.1-1.2-0.2c-0.4-0.1-0.8-0.3-1.1-0.6c-0.3-0.3-0.6-0.7-0.8-1.1c-0.2-0.4-0.3-1-0.3-1.6c0-0.7,0.3-1.4,0.8-2
		c0.6-0.6,1.3-1.2,2.1-1.8c0.8-0.5,1.6-1,2.2-1.3c0.6-0.4,1.2-0.7,1.7-1c0.5-0.3,0.9-0.5,1.3-0.7c0.4-0.2,0.7-0.4,0.9-0.5v-3.9
		c0,0,0-0.2-0.1-0.4c-0.1-0.2-0.2-0.4-0.4-0.6c-0.2-0.2-0.5-0.4-0.9-0.5c-0.4-0.2-0.9-0.2-1.5-0.2c-0.4,0-0.8,0.1-1.2,0.2
		c-0.4,0.1-0.7,0.3-1,0.5c-0.3,0.2-0.5,0.4-0.7,0.6c-0.2,0.2-0.3,0.4-0.3,0.5v1.7c0,0.3-0.2,0.7-0.5,0.9c-0.4,0.3-0.8,0.4-1.2,0.4
		c-0.4,0-0.7-0.1-1-0.4s-0.4-0.6-0.4-1c0-0.3,0.1-0.6,0.2-0.8c0.1-0.2,0.3-0.5,0.6-0.7c0.2-0.2,0.5-0.4,0.7-0.5
		c0.3-0.1,0.5-0.3,0.7-0.4c0.6-0.4,1.3-0.7,2-1.1c0.7-0.3,1.3-0.6,1.9-0.9c0.6-0.2,1.2-0.4,1.7-0.6c0.5-0.1,0.9-0.2,1.3-0.2
		c0.6,0,1.3,0.2,1.8,0.5c0.6,0.3,1,0.8,1.2,1.3c0.1,0.2,0.2,0.5,0.2,0.9c0,0.4,0,0.9,0,1.3c0,0.9,0,1.7,0,2.4c0,0.7,0,1.4,0,2.1
		s0,1.4,0,2.1c0,0.7,0,1.5,0,2.3c0,1.1,0.2,1.9,0.6,2.2c0.4,0.4,0.8,0.5,1.3,0.5c0.6,0,1-0.1,1.3-0.4c0.3-0.2,0.5-0.5,0.6-0.9h0.2
		C201.4,34.2,201.3,34.7,201.1,35.2z M190.6,16.2c-0.3,0.3-0.7,0.5-1.2,0.5c-0.5,0-0.9-0.2-1.2-0.5c-0.3-0.3-0.5-0.7-0.5-1.2
		c0-0.5,0.2-0.9,0.5-1.2c0.3-0.3,0.7-0.5,1.2-0.5c0.5,0,0.9,0.2,1.2,0.5c0.3,0.3,0.5,0.7,0.5,1.2C191.1,15.5,191,15.9,190.6,16.2z
		 M194.4,27.3c-0.4,0.3-1,0.7-1.7,1c-0.7,0.4-1.3,0.8-2,1.2c-0.6,0.4-1.2,0.9-1.6,1.4c-0.5,0.5-0.7,1.1-0.7,1.7
		c0,0.6,0.2,1.2,0.7,1.8s1,0.8,1.8,0.8c0.6,0,1.2-0.1,1.7-0.2c0.5-0.1,1-0.4,1.4-0.9c0.3-0.3,0.4-0.6,0.4-1V27.3z M196.5,16.2
		c-0.3,0.3-0.7,0.5-1.2,0.5c-0.5,0-0.9-0.2-1.2-0.5c-0.3-0.3-0.5-0.7-0.5-1.2c0-0.5,0.2-0.9,0.5-1.2c0.3-0.3,0.7-0.5,1.2-0.5
		c0.5,0,0.9,0.2,1.2,0.5c0.3,0.3,0.5,0.7,0.5,1.2C197,15.5,196.8,15.9,196.5,16.2z"/>
	<path d="M201,37.4V37c1.1-0.1,1.9-0.2,2.3-0.4c0.4-0.2,0.6-0.4,0.6-0.8V14.3c0-0.2,0-0.3-0.1-0.4c0-0.1-0.1-0.2-0.3-0.3
		c-0.2-0.1-0.6-0.3-1-0.6c-0.4-0.3-0.8-0.5-1.1-0.6v-0.2l5.4-1.8h0.3V36c0,0.2,0.1,0.4,0.2,0.6c0.1,0.1,0.3,0.2,0.5,0.3
		c0.2,0.1,0.5,0.1,0.9,0.1s0.8,0,1.2,0.1v0.4H201z"/>
	<path d="M210.2,37.4V37c1.1-0.1,1.9-0.2,2.3-0.4c0.4-0.2,0.6-0.4,0.6-0.8V14.3c0-0.2,0-0.3-0.1-0.4c0-0.1-0.1-0.2-0.3-0.3
		c-0.2-0.1-0.6-0.3-1-0.6c-0.4-0.3-0.8-0.5-1.1-0.6v-0.2l5.4-1.8h0.3V36c0,0.2,0.1,0.4,0.2,0.6c0.1,0.1,0.3,0.2,0.5,0.3
		c0.2,0.1,0.5,0.1,0.9,0.1s0.8,0,1.2,0.1v0.4H210.2z"/>
	<path d="M234.7,33.6c-0.3,0.7-0.8,1.3-1.4,1.9s-1.3,1-2.2,1.4c-0.8,0.4-1.8,0.6-2.8,0.6c-1.3,0-2.4-0.2-3.5-0.7
		c-1-0.5-1.9-1.1-2.7-2c-0.7-0.9-1.3-1.9-1.7-3c-0.4-1.2-0.6-2.4-0.6-3.7c0-1,0.2-2.1,0.6-3.1c0.4-1,0.9-2,1.6-2.8
		c0.7-0.8,1.5-1.5,2.5-2c1-0.5,2.1-0.8,3.3-0.8c1,0,1.9,0.1,2.8,0.4c0.9,0.2,1.6,0.6,2.2,1.1c0.6,0.5,1.2,1.2,1.6,1.9
		c0.4,0.8,0.6,1.7,0.7,2.7h-12c0,0.2,0,0.4,0,0.7c0,0.3,0,0.5,0,0.8c0,1,0.1,2.1,0.4,3c0.3,1,0.7,1.8,1.3,2.5
		c0.6,0.7,1.3,1.3,2.2,1.7c0.9,0.4,1.9,0.6,3,0.6c1.2,0,2.3-0.3,3.3-1c0.9-0.6,1.6-1.4,1.9-2.3l0.3,0.1
		C235.2,32.3,235,32.9,234.7,33.6z M230.4,21c-0.6-0.7-1.5-1-2.6-1c-0.7,0-1.3,0.2-1.9,0.6c-0.6,0.4-1,0.9-1.5,1.4
		c-0.4,0.5-0.7,1.1-1,1.7c-0.2,0.6-0.4,1-0.4,1.3c0.6,0,1.1,0,1.5,0c0.4,0,0.9,0,1.3,0c0.4,0,0.9,0,1.4,0c0.5,0,1,0,1.6,0
		c0.4,0,0.7,0,1,0c0.3,0,0.6-0.1,0.9-0.2c0.2-0.2,0.3-0.4,0.4-0.6c0.1-0.2,0.1-0.4,0.1-0.8C231.3,22.4,231,21.7,230.4,21z"/>
	<path d="M234.8,42.8l-1.2-0.4L247.4,9l1.2,0.5L234.8,42.8z"/>
</g>
</svg>
