<svg id="Layer_1" xmlns="http://www.w3.org/2000/svg" viewBox="0 0 212.5 174.1">
  <style>
    @keyframes animationFrames{0%{transform:translate(0,2px)}to{transform:translate(50px,2px)}}@-moz-keyframes animationFrames{0%{-moz-transform:translate(0,2px)}to{-moz-transform:translate(50px,2px)}}@-webkit-keyframes animationFrames{0%{-webkit-transform:translate(0,2px)}to{-webkit-transform:translate(50px,2px)}}@-o-keyframes animationFrames{0%{-o-transform:translate(0,2px)}to{-o-transform:translate(50px,2px)}}@-ms-keyframes animationFrames{0%{-ms-transform:translate(0,2px)}to{-ms-transform:translate(50px,2px)}}@keyframes ktSziDoq_draw{to{stroke-dashoffset:0}}@keyframes ktSziDoq_fade{0%,92.3076923076923%{stroke-opacity:1}to{stroke-opacity:0}}.st0{fill:none;stroke:#474747;stroke-width:3;stroke-linecap:round;stroke-linejoin:round}
  </style>
  <path class="st0 ktSziDoq_0" d="M111.7 70.1v21.2l18.2 31.6H79.6l18.2-31.6V70.1l-2.3-2.4V65H114v2.7z"></path>
  <path class="st0" d="M102.8 55.6V42.7" style="animation:ktSziDoq_draw 666ms ease 55ms infinite" stroke-dasharray="13 15" stroke-dashoffset="14"></path>
  <path class="st0" d="M108.6 36.2h7.7m-3.9-3.9V40" style="animation:ktSziDoq_draw 666ms ease 111ms infinite" stroke-dasharray="8 10" stroke-dashoffset="9"></path>
  <path class="st0" d="M89.7 38.1a1.9 1.9 0 1 1 3.8 0 1.9 1.9 0 1 1-3.8 0" style="animation:ktSziDoq_draw 666ms ease 222ms infinite" stroke-dasharray="12 14" stroke-dashoffset="13"></path>
  <path d="M122 118.1H87.4l10.3-17.8h14.1z" style="animation:ktSziDoq_draw 666ms ease 277ms infinite;fill: #8F3CFF" clip-path="url(#wave)" stroke-dasharray="90 92" stroke-dashoffset="91"></path>
  <defs>
    <clipPath id="wave">
      <path d="M154.7 101.4c-2.1.1-4 .8-5.6 1.8-1.3.8-2.9.8-4.1 0-1.8-1.2-4-1.8-6.4-1.8-2.3 0-4.5.7-6.4 1.8-1.2.8-2.8.8-4.1 0-1.8-1.2-4-1.8-6.4-1.8-2.3 0-4.5.7-6.4 1.8-1.2.8-2.8.8-4.1 0-1.8-1.2-4-1.8-6.4-1.8-2.3 0-4.5.7-6.4 1.8-1.2.8-2.8.8-4.1 0-1.8-1.2-4-1.8-6.4-1.8s-4.5.7-6.4 1.8c-1.2.8-2.8.8-4.1 0-1.8-1.2-4-1.8-6.4-1.8s-4.5.7-6.4 1.8c-1.2.8-2.8.8-4.1 0-1.8-1.2-4-1.8-6.4-1.8-2.3 0-4.5.7-6.4 1.8-1.3.8-2.9.8-4.1 0-1.6-1-3.6-1.7-5.6-1.8-6.6-.4-12.6 5.2-12.7 11.8-.1 6.7 5.3 12.2 12 12.2 2.3 0 4.5-.7 6.4-1.8 1.2-.8 2.8-.8 4.1 0 1.8 1.2 4 1.8 6.4 1.8 2.3 0 4.5-.7 6.4-1.8 1.2-.8 2.8-.8 4.1 0 1.8 1.2 4 1.8 6.4 1.8s4.5-.7 6.4-1.8c1.2-.8 2.8-.8 4.1 0 1.8 1.2 4 1.8 6.4 1.8s4.5-.7 6.4-1.8c1.2-.8 2.8-.8 4.1 0 1.8 1.2 4 1.8 6.4 1.8 2.3 0 4.5-.7 6.4-1.8 1.2-.8 2.8-.8 4.1 0 1.8 1.2 4 1.8 6.4 1.8 2.3 0 4.5-.7 6.4-1.8 1.2-.8 2.8-.8 4.1 0 1.8 1.2 4 1.8 6.4 1.8s4.5-.7 6.4-1.8c1.2-.8 2.8-.8 4.1 0 1.8 1.2 4 1.8 6.4 1.8 6.7 0 12.1-5.5 12-12.2-.3-6.5-6.3-12.2-12.9-11.8z" style="animation:animationFrames linear 2s;animation-iteration-count:infinite;transform-origin:50% 50%;-webkit-animation:animationFrames linear 2s;-webkit-animation-iteration-count:infinite;-webkit-transform-origin:50% 50%;-moz-animation:animationFrames linear 2s;-moz-animation-iteration-count:infinite;-moz-transform-origin:50% 50%;-o-animation:animationFrames linear 2s;-o-animation-iteration-count:infinite;-o-transform-origin:50% 50%;-ms-animation:animationFrames linear 2s;-ms-animation-iteration-count:infinite;-ms-transform-origin:50% 50%"></path>
    </clipPath>
  </defs>
</svg>