
<svg width="183px" height="19px" viewBox="0 0 183 19" version="1.1" xmlns="http://www.w3.org/2000/svg" xmlns:xlink="http://www.w3.org/1999/xlink">
    <!-- Generator: Sketch 51.3 (57544) - http://www.bohemiancoding.com/sketch -->
    <desc>Created with Sketch.</desc>
    <defs></defs>
    <g id="Page-1" stroke="none" stroke-width="1" fill="none" fill-rule="evenodd">
        <g id="Login-UI" transform="translate(-823.000000, -357.000000)" fill="#FFFFFF" fill-rule="nonzero">
            <g id="intro" transform="translate(728.000000, 298.000000)">
                <g id="logo" transform="translate(95.000000, 59.000000)">
                    <g id="Group">
                        <g>
                            <polygon id="Shape" points="4.62758621 14.1444444 2.52413793 18.7888889 0.631034483 18.7888889 8.62413793 0.844444444 10.5172414 0.844444444 18.5103448 18.7888889 16.4068966 18.7888889 14.3034483 14.1444444 13.462069 12.2444444 9.46551724 3.16666667 5.46896552 12.2444444"></polygon>
                            <polygon id="Shape" points="31.1310345 1.05555556 33.0241379 1.05555556 33.0241379 16.8888889 42.9103448 16.8888889 42.9103448 18.7888889 30.9206897 18.7888889 30.9206897 1.05555556"></polygon>
                            <path d="M62.8931034,19 C57.8448276,19 54.0586207,14.9888889 54.0586207,9.92222222 C54.0586207,4.85555556 57.8448276,0.633333333 62.8931034,0.633333333 C66.0482759,0.633333333 67.9413793,1.68888889 69.8344828,3.37777778 L68.5724138,4.85555556 C67.1,3.37777778 65.4172414,2.32222222 63.1034483,2.32222222 C59.1068966,2.32222222 56.162069,5.48888889 56.162069,9.71111111 C56.162069,13.9333333 59.1068966,17.1 63.1034483,17.1 C65.6275862,17.1 67.1,16.2555556 68.7827586,14.5666667 L70.0448276,15.8333333 C68.1517241,17.7333333 66.0482759,19 62.8931034,19 Z" id="Shape"></path>
                            <polygon id="Shape" points="84.5586207 10.7666667 84.5586207 18.7888889 82.6655172 18.7888889 82.6655172 1.05555556 84.5586207 1.05555556 84.5586207 8.86666667 94.6551724 8.86666667 94.6551724 1.05555556 96.5482759 1.05555556 96.5482759 18.7888889 94.6551724 18.7888889 94.6551724 10.7666667 84.5586207 10.7666667"></polygon>
                            <polygon id="Shape" points="123.472414 2.95555556 112.744828 2.95555556 112.744828 9.07777778 122.42069 9.07777778 122.42069 10.9777778 112.744828 10.9777778 112.744828 17.1 123.682759 17.1 123.682759 19 110.851724 19 110.851724 1.05555556 123.682759 1.05555556 123.682759 2.95555556"></polygon>
                            <polygon id="Shape" points="145.348276 13.9333333 145.348276 13.9333333 138.827586 4.43333333 138.827586 18.7888889 136.934483 18.7888889 136.934483 1.05555556 139.037931 1.05555556 145.558621 10.7666667 152.07931 1.05555556 154.182759 1.05555556 154.182759 18.7888889 152.289655 18.7888889 152.289655 4.43333333"></polygon>
                            <polygon id="Shape" points="175.427586 18.7888889 173.324138 18.7888889 173.324138 11.8222222 165.962069 1.05555556 168.486207 1.05555556 174.375862 9.92222222 180.475862 1.05555556 182.789655 1.05555556 175.427586 11.8222222"></polygon>
                        </g>
                    </g>
                </g>
            </g>
        </g>
    </g>
</svg>