<?xml version="1.0" encoding="utf-8"?>
<!-- Generator: Adobe Illustrator 21.1.0, SVG Export Plug-In . SVG Version: 6.00 Build 0)  -->
<svg version="1.1" id="Layer_1" xmlns="http://www.w3.org/2000/svg" xmlns:xlink="http://www.w3.org/1999/xlink" x="0px" y="0px"
	 viewBox="0 0 92 17.2" style="enable-background:new 0 0 92 17.2;" xml:space="preserve">
<g>
	<path d="M4.9,10.9l-1,2.2H3l3.8-8.5h0.9l3.8,8.5h-1l-1-2.2L9.1,10L7.2,5.7L5.3,10L4.9,10.9z"/>
	<path d="M17.5,4.7h0.9v7.5h4.7v0.9h-5.7V4.7z"/>
	<path d="M32.6,13.2c-2.4,0-4.2-1.9-4.2-4.3c0-2.4,1.8-4.4,4.2-4.4c1.5,0,2.4,0.5,3.3,1.3l-0.6,0.7c-0.7-0.7-1.5-1.2-2.6-1.2
		c-1.9,0-3.3,1.5-3.3,3.5s1.4,3.5,3.3,3.5c1.2,0,1.9-0.4,2.7-1.2l0.6,0.6C35.1,12.6,34.1,13.2,32.6,13.2z"/>
	<path d="M42.9,9.3v3.8h-0.9V4.7h0.9v3.7h4.8V4.7h0.9v8.4h-0.9V9.3H42.9z"/>
	<path d="M61.4,5.6h-5.1v2.9h4.6v0.9h-4.6v2.9h5.2v0.9h-6.1V4.7h6.1V5.6z"/>
	<path d="M71.8,10.8L71.8,10.8l-3.1-4.5v6.8h-0.9V4.7h1l3.1,4.6l3.1-4.6h1v8.4h-0.9V6.3L71.8,10.8z"/>
	<path d="M86.1,13.1h-1V9.8l-3.5-5.1h1.2l2.8,4.2l2.9-4.2h1.1l-3.5,5.1V13.1z"/>
</g>
</svg>
