<?xml version="1.0" encoding="utf-8"?>
<!-- Generator: Adobe Illustrator 22.1.0, SVG Export Plug-In . SVG Version: 6.00 Build 0)  -->
<svg version="1.1" id="Layer_1" xmlns="http://www.w3.org/2000/svg" xmlns:xlink="http://www.w3.org/1999/xlink" x="0px" y="0px"
	 viewBox="0 0 40.1 50" style="enable-background:new 0 0 40.1 50;" xml:space="preserve">
<style type="text/css">
	.st0{fill:#7559A6;}
</style>
<path class="st0" d="M36.1,49.1H3.8c-1,0-2-0.5-2.5-1.4c-0.5-0.9-0.5-2,0-2.9l11.7-20.3c0.1-0.1,0.1-0.2,0.1-0.3V7.9
	c0-1.9-1.4-2.2-1.8-2.2c-0.6-0.1-1-0.6-1-1.1V2.1c0-0.6,0.5-1.1,1.1-1.1h17.2c0.6,0,1.1,0.5,1.1,1.1v2.5c0,0.6-0.5,1.1-1.1,1.1
	c-0.4,0-1.7,0.3-1.7,2.2v16.2c0,0.1,0,0.2,0.1,0.3l11.7,20.2c0,0,0,0,0,0c0.5,0.9,0.5,2,0,2.9C38.2,48.5,37.2,49.1,36.1,49.1z
	 M12.5,3.7c1.3,0.5,2.8,1.7,2.8,4.2v16.2c0,0.5-0.1,1-0.4,1.5L3.2,45.8c-0.2,0.3,0,0.5,0,0.6c0.1,0.1,0.2,0.3,0.5,0.3h32.3
	c0.3,0,0.5-0.2,0.6-0.3c0.1-0.1,0.2-0.4,0-0.6L25,25.6c-0.3-0.4-0.4-0.9-0.4-1.5V7.9c0-2.5,1.5-3.8,2.8-4.2V3.2H12.5V3.7z"/>
<path class="st0" d="M32.4,44.2H7.6l4.5-7.7c1.5,1,3.5,2,5.6,1.4c3.1-0.9,5.4-3.5,8.4-4.6L32.4,44.2z"/>
</svg>
