<?xml version="1.0" encoding="utf-8"?>
<!-- Generator: Adobe Illustrator 22.0.1, SVG Export Plug-In . SVG Version: 6.00 Build 0)  -->
<svg version="1.1" xmlns="http://www.w3.org/2000/svg" xmlns:xlink="http://www.w3.org/1999/xlink" x="0px" y="0px"
	 viewBox="0 0 30 30" style="enable-background:new 0 0 30 30;" xml:space="preserve">
<style type="text/css">
	.st0{display:none;}
	.st1{display:inline;opacity:0.71;fill:#231F20;}
	.st2{fill:none;stroke:#8F3CFF;stroke-miterlimit:10;}
	.st3{fill:#8F3CFF;}
	.st4{fill:none;stroke:#8F3CFF;stroke-linecap:round;stroke-linejoin:round;stroke-miterlimit:10;}
	.st5{display:inline;opacity:0.45;}
</style>
<g id="Layer_2" class="st0">
	<rect x="-208.7" y="-287.4" class="st1" width="359.9" height="311.9"/>
	<rect x="-158.7" y="-237.4" class="st1" width="359.9" height="311.9"/>
	<rect x="-208.7" y="-237.4" class="st1" width="359.9" height="311.9"/>
	<rect x="-158.7" y="-187.4" class="st1" width="359.9" height="311.9"/>
</g>
<g id="Layer_1">
	<g>
		<g>
			<path class="st2" d="M13,10.8c0,0.5,0,2,0,2s-1.5,0-2,0c-1.1,0-2-0.9-2-2s0.9-2,2-2S13,9.7,13,10.8z"/>
			<line class="st2" x1="13" y1="11.9" x2="13" y2="16.6"/>
		</g>
		<g>
			<path class="st2" d="M17.4,10.8c0,0.5,0,2,0,2s1.5,0,2,0c1.1,0,2-0.9,2-2s-0.9-2-2-2S17.4,9.7,17.4,10.8z"/>
			<line class="st2" x1="17.4" y1="11.9" x2="17.4" y2="16.6"/>
		</g>
		<g>
			<path class="st2" d="M17.4,19.2c0-0.5,0-2,0-2s1.5,0,2,0c1.1,0,2,0.9,2,2s-0.9,2-2,2S17.4,20.3,17.4,19.2z"/>
			<line class="st2" x1="17.4" y1="18.1" x2="17.4" y2="13.4"/>
		</g>
		<g>
			<path class="st2" d="M13,19.2c0-0.5,0-2,0-2s-1.5,0-2,0c-1.1,0-2,0.9-2,2s0.9,2,2,2S13,20.3,13,19.2z"/>
			<line class="st2" x1="13" y1="18.1" x2="13" y2="13.4"/>
		</g>
		<line class="st2" x1="13" y1="12.9" x2="17.4" y2="12.9"/>
		<line class="st2" x1="13" y1="17.1" x2="17.4" y2="17.1"/>
	</g>
</g>
<g id="Layer_3" class="st0">
</g>
<g id="Layer_4">
</g>
</svg>
