<?xml version="1.0" encoding="utf-8"?>
<!-- Generator: Adobe Illustrator 22.0.1, SVG Export Plug-In . SVG Version: 6.00 Build 0)  -->
<svg version="1.1" xmlns="http://www.w3.org/2000/svg" xmlns:xlink="http://www.w3.org/1999/xlink" x="0px" y="0px"
	 viewBox="0 0 97.3 20.3" style="enable-background:new 0 0 97.3 20.3;" xml:space="preserve">
<style type="text/css">
	.st0{display:none;}
	.st1{display:inline;opacity:0.71;fill:#231F20;}
	.st2{fill:none;stroke:#8F3CFF;stroke-miterlimit:10;}
	.st3{fill:#8F3CFF;}
	.st4{fill:none;stroke:#8F3CFF;stroke-linecap:round;stroke-linejoin:round;stroke-miterlimit:10;}
	.st5{display:inline;opacity:0.45;}
</style>
<g id="Layer_2" class="st0">
	<rect x="-258.7" y="-287.4" class="st1" width="359.9" height="311.9"/>
	<rect x="-208.7" y="-237.4" class="st1" width="359.9" height="311.9"/>
	<rect x="-258.7" y="-237.4" class="st1" width="359.9" height="311.9"/>
	<rect x="-208.7" y="-187.4" class="st1" width="359.9" height="311.9"/>
</g>
<g id="Layer_1">
	<g>
		<path class="st3" d="M7.2,11.7l-1,2.2H5.3l3.8-8.5H10l3.8,8.5h-1l-1-2.2l-0.4-0.9L9.5,6.5l-1.9,4.3L7.2,11.7z"/>
		<path class="st3" d="M19.8,5.5h0.9V13h4.7v0.9h-5.7V5.5H19.8z"/>
		<path class="st3" d="M34.9,14c-2.4,0-4.2-1.9-4.2-4.3s1.8-4.4,4.2-4.4c1.5,0,2.4,0.5,3.3,1.3l-0.6,0.7c-0.7-0.7-1.5-1.2-2.6-1.2
			c-1.9,0-3.3,1.5-3.3,3.5s1.4,3.5,3.3,3.5c1.2,0,1.9-0.4,2.7-1.2l0.6,0.6C37.4,13.4,36.4,14,34.9,14z"/>
		<path class="st3" d="M45.2,10.1v3.8h-0.9V5.5h0.9v3.7H50V5.5h0.9v8.4H50v-3.8H45.2z"/>
		<path class="st3" d="M63.7,6.4h-5.1v2.9h4.6v0.9h-4.6v2.9h5.2V14h-6.1V5.5h6.1v0.9H63.7z"/>
		<path class="st3" d="M74.1,11.6L74.1,11.6L71,7.1v6.8h-0.9V5.5h1l3.1,4.6l3.1-4.6h1v8.4h-0.9V7.1L74.1,11.6z"/>
		<path class="st3" d="M88.4,13.9h-1v-3.3l-3.5-5.1h1.2l2.8,4.2l2.9-4.2h1.1l-3.5,5.1V13.9z"/>
	</g>
</g>
<g id="Layer_3" class="st0">
</g>
<g id="Layer_4">
</g>
</svg>
