<?xml version="1.0" encoding="utf-8"?>
<!-- Generator: Adobe Illustrator 22.0.1, SVG Export Plug-In . SVG Version: 6.00 Build 0)  -->
<svg version="1.1" xmlns="http://www.w3.org/2000/svg" xmlns:xlink="http://www.w3.org/1999/xlink" x="0px" y="0px"
	 viewBox="0 0 30 30" style="enable-background:new 0 0 30 30;" xml:space="preserve">
<style type="text/css">
	.st0{display:none;}
	.st1{display:inline;opacity:0.71;fill:#231F20;}
	.st2{fill:none;stroke:#FFFFFF;stroke-miterlimit:10;}
	.st3{fill:#FFFFFF;}
	.st4{fill:none;stroke:#FFFFFF;stroke-linecap:round;stroke-linejoin:round;stroke-miterlimit:10;}
	.st5{display:inline;opacity:0.45;}
</style>
<g id="Layer_2" class="st0">
	<rect x="-130" y="-145.4" class="st1" width="359.9" height="311.9"/>
</g>
<g id="Layer_1">
	<g>
		<path class="st2" d="M16.7,8.3c0-0.7-0.6-1.2-1.2-1.2c-0.7,0-1.2,0.6-1.2,1.2"/>
		<path class="st2" d="M16.7,14.6V8.3c0-0.7,0.6-1.2,1.2-1.2c0.7,0,1.2,0.6,1.2,1.2v6.3"/>
		<path class="st2" d="M19.2,10.5c0-0.7,0.7-1.3,1.4-1.2c0.6,0.1,1,0.7,1,1.3l0,4.1c0,1.1-0.2,2.3-0.5,3.4l-1.1,3.5
			c-0.3,1.3-1.4,2.2-2.8,2.2h-4.3c-1.3,0-1.3-0.9-2.2-2.1L9.5,19l-1.8-3.9c-0.3-0.6-0.1-1.3,0.4-1.6c0.7-0.4,1.5-0.2,1.8,0.5
			l0.8,1.7c0.6,1.6,1.4,2.3,1.1-0.5c0-0.3,0-0.6,0-1v-6c0-0.7,0.7-1.3,1.4-1.2c0.6,0.1,1,0.7,1,1.3l0,6.2"/>
	</g>
</g>
<g id="Layer_3" class="st0">
</g>
<g id="Layer_4">
</g>
</svg>
