<?xml version="1.0" encoding="utf-8"?>
<!-- Generator: Adobe Illustrator 22.0.1, SVG Export Plug-In . SVG Version: 6.00 Build 0)  -->
<svg version="1.1" xmlns="http://www.w3.org/2000/svg" xmlns:xlink="http://www.w3.org/1999/xlink" x="0px" y="0px"
	 viewBox="0 0 30 30" style="enable-background:new 0 0 30 30;" xml:space="preserve">
<style type="text/css">
	.st0{display:none;}
	.st1{display:inline;opacity:0.71;fill:#231F20;}
	.st2{fill:none;stroke:#FFFFFF;stroke-miterlimit:10;}
	.st3{fill:#FFFFFF;}
	.st4{fill:none;stroke:#FFFFFF;stroke-linecap:round;stroke-linejoin:round;stroke-miterlimit:10;}
	.st5{display:inline;opacity:0.45;}
</style>
<g id="Layer_2" class="st0">
	<rect x="-180" y="-145.4" class="st1" width="359.9" height="311.9"/>
</g>
<g id="Layer_1">
	<path class="st2" d="M20.9,12.3l-5.7,6.5c-0.1,0.1-0.2,0.1-0.3,0l-5.7-6.5c-0.1-0.1,0-0.3,0.1-0.3h2.8c0.1,0,0.2-0.1,0.2-0.2V6.9
		c0-0.1,0.1-0.2,0.2-0.2h5.2c0.1,0,0.2,0.1,0.2,0.2v4.8c0,0.1,0.1,0.2,0.2,0.2h2.6C20.9,11.9,21,12.1,20.9,12.3z"/>
	<line class="st2" x1="7.6" y1="22.5" x2="22.4" y2="22.5"/>
</g>
<g id="Layer_3" class="st0">
</g>
<g id="Layer_4">
</g>
</svg>
